<svg xmlns="http://www.w3.org/2000/svg" viewBox="0 0 100 100">
  <rect width="100" height="100" rx="24" fill="#f5f7f2"/>
  <g fill="#2f7d4a">
    <rect x="15" y="20" width="23" height="6" rx="3"/>
    <rect x="12" y="31" width="29" height="6" rx="3"/>
    <rect x="9" y="42" width="35" height="6" rx="3"/>
    <rect x="9" y="53" width="35" height="6" rx="3"/>
    <rect x="12" y="64" width="29" height="6" rx="3"/>
    <rect x="15" y="75" width="23" height="6" rx="3"/>
  </g>
  <path d="M58 14c14 2 26 14 26 30 0 19-14 33-26 44 4-9 2-15-2-21 6-4 8-10 4-16-5 6-9 4-12-2 8-4 10-12 4-20 4 0 6-4 6-8-4 2-8 0-10-4 4-4 8-5 10-3Z" fill="#262a28"/>
</svg>
